# Blender v2.90.1 OBJ File: 'bullet.blend'
# www.blender.org
mtllib bullet.mtl
o Cube
v 0.000000 0.050000 0.050000
v 0.000000 -0.050000 0.050000
v -1.000000 0.050000 0.050000
v -1.000000 -0.050000 0.050000
v 0.000000 0.050000 -0.050000
v 0.000000 -0.050000 -0.050000
v -1.000000 0.050000 -0.050000
v -1.000000 -0.050000 -0.050000
vt 0.187500 1.000000
vt 0.031250 -0.000000
vt 0.187500 -0.000000
vt 0.046875 1.000000
vt 0.031250 1.000000
vt 0.031250 0.000000
vt 0.187500 1.000000
vt 0.031250 1.000000
vt 0.187500 1.000000
vt 0.031250 0.000000
vt 0.187500 -0.000000
vt 0.187500 1.000000
vt 0.031250 0.000000
vt 0.187500 -0.000000
vt 0.171875 0.000000
vt 0.031250 1.000000
vt 0.046875 -0.000000
vt 0.187500 -0.000000
vt 0.031250 1.000000
vt 0.171875 1.000000
vn 0.0000 1.0000 0.0000
vn -1.0000 0.0000 0.0000
vn -0.0000 0.0000 -1.0000
vn 0.0000 -1.0000 0.0000
vn 0.0000 0.0000 1.0000
vn 1.0000 0.0000 0.0000
usemtl Material
s off
f 5/1/1 3/2/1 1/3/1
f 3/2/2 8/4/2 4/5/2
f 7/6/3 6/7/3 8/8/3
f 2/9/4 8/10/4 6/11/4
f 1/12/5 4/13/5 2/14/5
f 5/1/6 2/15/6 6/11/6
f 5/1/1 7/16/1 3/2/1
f 3/2/2 7/17/2 8/4/2
f 7/6/3 5/18/3 6/7/3
f 2/9/4 4/5/4 8/10/4
f 1/12/5 3/19/5 4/13/5
f 5/1/6 1/20/6 2/15/6
