# Blender v2.90.1 OBJ File: 'bullet.blend'
# www.blender.org
mtllib bullet.mtl
o Cube
v 0.000000 0.050000 0.050000
v 0.000000 -0.050000 0.050000
v 0.000000 0.050000 -0.050000
v 0.000000 -0.050000 -0.050000
v -1.000000 0.000000 0.000000
vt 0.187500 1.000000
vt 0.031250 0.500000
vt 0.187500 -0.000000
vt 0.187500 1.000000
vt 0.187500 -0.000000
vt 0.187500 1.000000
vt 0.187500 -0.000000
vt 0.171875 0.000000
vt 0.187500 -0.000000
vt 0.187500 1.000000
vt 0.171875 1.000000
vn -0.0499 0.9988 0.0000
vn -0.0499 -0.9988 0.0000
vn -0.0499 0.0000 0.9988
vn 1.0000 0.0000 0.0000
vn -0.0499 0.0000 -0.9988
usemtl Material
s off
f 3/1/1 5/2/1 1/3/1
f 2/4/2 5/2/2 4/5/2
f 1/6/3 5/2/3 2/7/3
f 3/1/4 2/8/4 4/5/4
f 5/2/5 3/9/5 4/10/5
f 3/1/4 1/11/4 2/8/4
