# Blender v2.90.1 OBJ File: 'mouseblend.blend'
# www.blender.org
mtllib mouse.mtl
o Plane
v -0.257013 1.000699 0.361997
v -0.648831 0.678896 0.579500
v -0.644025 1.564623 0.731258
v 0.095925 -0.069472 0.368357
v -0.444787 0.175466 0.678713
v -0.747650 1.304131 0.844531
v -0.389152 1.570177 0.520278
v 0.324257 0.634964 0.334181
v 0.427309 0.511303 0.292961
v 0.306591 0.424445 0.446508
v 0.172624 0.562828 0.440177
v 0.307695 0.595216 0.449121
v -0.651879 0.970681 0.709239
v -0.259196 1.244150 0.258307
v -0.257013 1.000699 -0.361997
v -0.083640 1.180044 0.000000
v -0.648831 0.678896 -0.579500
v -0.644025 1.564623 -0.731258
v -0.252236 1.218508 0.000000
v 1.066669 -0.017828 0.000000
v 0.612401 0.691005 0.000000
v 0.095925 -0.069472 -0.368357
v -0.444787 0.175466 -0.678713
v 0.663724 -0.213186 0.000000
v -0.747650 1.304131 -0.844531
v -0.389152 1.570177 -0.520278
v 0.324257 0.634964 -0.334181
v 0.427309 0.511303 -0.292961
v 0.306591 0.424445 -0.446508
v 0.172624 0.562828 -0.440177
v 0.307695 0.595216 -0.449121
v -0.651879 0.970681 -0.709239
v -0.259196 1.244150 -0.258307
v -0.167938 1.199276 0.000000
v 0.095925 -0.069472 0.000000
v -0.444787 0.175466 0.000000
v -0.617767 0.975336 0.000000
v -0.698412 0.699061 0.000000
vt 0.682128 0.492719
vt 0.632940 0.530045
vt 0.654881 0.568015
vt 0.614910 0.575348
vt 0.682883 0.563962
vt 0.506395 0.582298
vt 0.351837 0.421577
vt 0.437976 0.618126
vt 0.399700 0.541857
vt 0.450355 0.550089
vt 0.383227 0.751371
vt 0.330186 0.683731
vt 0.415508 0.491764
vt 0.487420 0.762940
vt 0.482712 0.546646
vt 0.483648 0.762940
vt 0.357258 0.528952
vt 0.486204 0.233888
vt 0.482246 0.546341
vt 0.360172 0.467584
vt 0.211628 0.319258
vt 0.327424 0.211079
vt 0.293479 0.429222
vt 0.487420 0.771434
vt 0.200931 0.933425
vt 0.130346 0.847075
vt 0.261437 0.924173
vt 0.487420 0.147606
vt 0.487420 0.233888
vt 0.184232 0.672581
vt 0.243819 0.569224
vt 0.396074 0.192606
vt 0.365032 0.313825
vt 0.441747 0.264829
vt 0.375423 0.407237
vt 0.259595 0.305270
vt 0.207161 0.386221
vt 0.483001 0.672529
vt 0.330172 0.631037
vt 0.483001 0.550509
vt 0.327711 0.631037
vt 0.359519 0.774115
vt 0.348247 0.576749
vt 0.469111 0.704666
vt 0.355181 0.687027
vt 0.359266 0.661407
vt 0.494497 0.741893
vt 0.332954 0.680655
vt 0.682128 0.492719
vt 0.654881 0.568015
vt 0.632940 0.530045
vt 0.614910 0.575348
vt 0.682883 0.563962
vt 0.506395 0.582298
vt 0.437976 0.618126
vt 0.351837 0.421577
vt 0.399700 0.541857
vt 0.383227 0.751371
vt 0.450355 0.550089
vt 0.330186 0.683731
vt 0.415508 0.491764
vt 0.357258 0.528952
vt 0.360172 0.467584
vt 0.211628 0.319258
vt 0.293479 0.429222
vt 0.327424 0.211079
vt 0.200931 0.933425
vt 0.261437 0.924173
vt 0.130346 0.847075
vt 0.184232 0.672581
vt 0.359519 0.774115
vt 0.365032 0.313825
vt 0.259595 0.305270
vt 0.207161 0.386221
vt 0.330172 0.631037
vt 0.327711 0.631037
vt 0.348247 0.576749
vt 0.355181 0.687027
vt 0.359266 0.661407
vt 0.332954 0.680655
vt 0.378256 0.772750
vt 0.488396 0.757467
vt 0.407302 0.272342
vt 0.462579 0.601328
vt 0.467113 0.736833
vt 0.378256 0.772750
vt 0.243819 0.569224
vt 0.467113 0.736833
vn 0.7900 -0.0145 0.6129
vn -0.2413 0.9274 0.2859
vn 0.7794 0.5488 0.3021
vn -0.0625 -0.0149 0.9979
vn 0.2105 0.2470 0.9459
vn 0.3393 0.4776 0.8104
vn 0.4599 0.6882 0.5612
vn 0.4858 0.6914 0.5348
vn 0.6374 0.4085 0.6533
vn 0.3705 -0.2972 0.8800
vn 0.1916 0.8399 0.5079
vn 0.6792 0.3512 0.6445
vn 0.6345 0.0818 0.7686
vn 0.3049 -0.6288 0.7153
vn 0.8149 -0.4121 0.4076
vn 0.6417 -0.3060 0.7033
vn -0.2454 -0.9694 0.0000
vn -0.4126 -0.9109 0.0000
vn -0.4464 0.8061 0.3884
vn -0.9559 0.2790 0.0915
vn 0.7904 -0.1600 0.5913
vn -0.9268 -0.3756 0.0000
vn 0.1976 0.2660 0.9435
vn 0.4967 -0.7466 -0.4427
vn 0.7900 -0.0145 -0.6129
vn -0.2413 0.9274 -0.2859
vn 0.7794 0.5488 -0.3021
vn -0.0625 -0.0149 -0.9979
vn 0.2105 0.2470 -0.9459
vn 0.3393 0.4776 -0.8104
vn 0.4599 0.6882 -0.5612
vn 0.4858 0.6914 -0.5348
vn 0.6374 0.4085 -0.6533
vn 0.3705 -0.2972 -0.8800
vn 0.1916 0.8399 -0.5079
vn 0.6792 0.3512 -0.6445
vn 0.6345 0.0818 -0.7686
vn 0.3049 -0.6288 -0.7153
vn 0.8149 -0.4121 -0.4076
vn 0.6134 0.3141 -0.7246
vn -0.4464 0.8061 -0.3884
vn -0.9559 0.2790 -0.0915
vn 0.7904 -0.1600 -0.5913
vn 0.1976 0.2660 -0.9435
vn 0.9995 0.0196 -0.0250
vn 0.3574 -0.0832 0.9302
vn 0.6134 0.3141 0.7246
vn 0.7023 -0.0850 0.7067
vn -0.8983 -0.4351 0.0617
vn 0.2055 0.3638 0.9085
vn 0.9995 0.0196 0.0250
vn 0.3574 -0.0832 -0.9302
vn 0.6417 -0.3060 -0.7033
vn 0.7023 -0.0850 -0.7067
vn -0.8983 -0.4351 -0.0617
vn 0.2055 0.3638 -0.9085
vn 0.4967 -0.7466 0.4427
usemtl Material.001
s off
f 10/1/1 9/2/1 12/3/1
f 8/4/2 11/5/2 12/3/2
f 9/2/3 8/4/3 12/3/3
f 11/5/4 10/1/4 12/3/4
f 11/6/5 5/7/5 10/8/5
f 11/9/6 8/10/6 1/11/6
f 1/12/7 8/13/7 16/14/7
f 21/15/8 16/16/8 8/17/8
f 20/18/9 21/19/9 9/20/9
f 5/21/10 4/22/10 10/23/10
f 34/24/11 1/12/11 16/14/11
f 9/20/12 21/15/12 8/17/12
f 3/25/13 6/26/13 7/27/13
f 24/28/14 20/29/14 4/22/14
f 4/22/15 9/20/15 10/23/15
f 1/12/16 13/30/16 2/31/16
f 24/32/17 4/33/17 35/34/17
f 36/35/18 4/36/18 5/37/18
f 1/12/19 37/38/19 2/39/19
f 37/38/20 38/40/20 2/41/20
f 7/27/21 13/30/21 14/42/21
f 2/43/22 36/44/22 5/45/22
f 11/6/23 2/46/23 5/7/23
f 19/47/24 1/48/24 37/38/24
f 29/49/25 31/50/25 28/51/25
f 27/52/26 31/50/26 30/53/26
f 28/51/27 31/50/27 27/52/27
f 30/53/28 31/50/28 29/49/28
f 30/54/29 29/55/29 23/56/29
f 30/57/30 15/58/30 27/59/30
f 15/60/31 16/14/31 27/61/31
f 21/15/32 27/62/32 16/16/32
f 20/18/33 28/63/33 21/19/33
f 23/64/34 29/65/34 22/66/34
f 15/60/35 34/24/35 16/14/35
f 28/63/36 27/62/36 21/15/36
f 18/67/37 26/68/37 25/69/37
f 24/28/38 22/66/38 20/29/38
f 28/63/39 22/66/39 29/65/39
f 15/60/40 32/70/40 33/71/40
f 24/32/17 35/34/17 22/72/17
f 22/73/18 36/35/18 23/74/18
f 15/60/41 17/75/41 37/38/41
f 37/38/42 17/76/42 38/40/42
f 32/70/43 26/68/43 33/71/43
f 36/44/22 17/77/22 23/78/22
f 17/79/44 30/54/44 23/56/44
f 19/47/45 15/80/45 33/81/45
f 34/24/11 19/82/11 1/12/11
f 4/22/46 20/18/46 9/20/46
f 1/12/47 14/42/47 13/30/47
f 36/35/18 35/83/18 4/36/18
f 7/27/48 6/26/48 13/30/48
f 2/43/49 38/84/49 36/44/49
f 11/6/50 1/85/50 2/46/50
f 19/47/51 14/86/51 1/48/51
f 15/60/35 19/82/35 34/24/35
f 28/63/52 20/18/52 22/66/52
f 15/60/53 17/87/53 32/70/53
f 22/73/18 35/83/18 36/35/18
f 32/70/54 25/69/54 26/68/54
f 36/44/55 38/84/55 17/77/55
f 17/79/56 15/88/56 30/54/56
f 19/47/57 37/38/57 15/80/57
