{
    "asset" : {
        "generator" : "Khronos glTF Blender I/O v1.3.48",
        "version" : "2.0"
    },
    "scene" : 0,
    "scenes" : [
        {
            "name" : "Scene",
            "nodes" : [
                0
            ]
        }
    ],
    "nodes" : [
        {
            "mesh" : 0,
            "name" : "Cube.003"
        }
    ],
    "meshes" : [
        {
            "name" : "Cube.003",
            "primitives" : [
                {
                    "attributes" : {
                        "POSITION" : 0,
                        "NORMAL" : 1,
                        "TEXCOORD_0" : 2
                    },
                    "indices" : 3
                }
            ]
        }
    ],
    "accessors" : [
        {
            "bufferView" : 0,
            "componentType" : 5126,
            "count" : 812,
            "max" : [
                1.0680596828460693,
                2.8090765476226807,
                1.3250471353530884
            ],
            "min" : [
                -2.19819712638855,
                -0.0005789668648503721,
                -1.3250471353530884
            ],
            "type" : "VEC3"
        },
        {
            "bufferView" : 1,
            "componentType" : 5126,
            "count" : 812,
            "type" : "VEC3"
        },
        {
            "bufferView" : 2,
            "componentType" : 5126,
            "count" : 812,
            "type" : "VEC2"
        },
        {
            "bufferView" : 3,
            "componentType" : 5123,
            "count" : 1074,
            "type" : "SCALAR"
        }
    ],
    "bufferViews" : [
        {
            "buffer" : 0,
            "byteLength" : 9744,
            "byteOffset" : 0
        },
        {
            "buffer" : 0,
            "byteLength" : 9744,
            "byteOffset" : 9744
        },
        {
            "buffer" : 0,
            "byteLength" : 6496,
            "byteOffset" : 19488
        },
        {
            "buffer" : 0,
            "byteLength" : 2148,
            "byteOffset" : 25984
        }
    ],
    "buffers" : [
        {
            "byteLength" : 28132,
            "uri" : "data:application/octet-stream;base64,"
        }
    ]
}
