# Blender v2.90.1 OBJ File: 'selection_indicator.blend'
# www.blender.org
mtllib selection_indicator.mtl
o Torus
v 2.200000 0.000000 -0.000000
v 2.000000 0.200000 -0.000000
v 1.800000 0.000000 -0.000000
v 2.000000 -0.200000 -0.000000
v 1.555635 0.000000 -1.555635
v 1.414214 0.200000 -1.414214
v 1.272792 0.000000 -1.272792
v 1.414214 -0.200000 -1.414214
v 0.000000 0.000000 -2.200000
v 0.000000 0.200000 -2.000000
v 0.000000 0.000000 -1.800000
v 0.000000 -0.200000 -2.000000
v -1.555635 0.000000 -1.555634
v -1.414214 0.200000 -1.414213
v -1.272792 0.000000 -1.272792
v -1.414214 -0.200000 -1.414213
v -2.200000 0.000000 -0.000000
v -2.000000 0.200000 -0.000000
v -1.800000 0.000000 -0.000000
v -2.000000 -0.200000 -0.000000
v -1.555635 0.000000 1.555634
v -1.414214 0.200000 1.414213
v -1.272792 0.000000 1.272792
v -1.414214 -0.200000 1.414213
v 0.000000 0.000000 2.200000
v 0.000000 0.200000 2.000000
v 0.000000 0.000000 1.800000
v 0.000000 -0.200000 2.000000
v 1.555634 0.000000 1.555636
v 1.414213 0.200000 1.414214
v 1.272792 0.000000 1.272793
v 1.414213 -0.200000 1.414214
vt 0.250000 0.200000
vt 0.312500 0.500000
vt 0.250000 0.500000
vt 0.312500 0.200000
vt 0.375000 0.500000
vt 0.125000 0.200000
vt 0.187500 0.500000
vt 0.125000 0.500000
vt 0.187500 0.200000
vt 0.312500 -0.100000
vt 0.375000 -0.100000
vt 0.375000 0.200000
vt 0.125000 -0.100000
vt 0.187500 -0.100000
vt 0.250000 -0.400000
vt 0.250000 -0.100000
vt 0.312500 -0.400000
vt 0.125000 -0.400000
vt 0.187500 -0.400000
vt 0.312500 -0.700000
vt 0.375000 -0.400000
vt 0.125000 -0.700000
vt 0.187500 -0.700000
vt 0.250000 1.400000
vt 0.312500 1.700000
vt 0.250000 1.700000
vt 0.312500 1.400000
vt 0.375000 1.700000
vt 0.125000 1.400000
vt 0.187500 1.700000
vt 0.125000 1.700000
vt 0.250000 1.100000
vt 0.312500 1.100000
vt 0.375000 1.400000
vt 0.187500 1.100000
vt 0.187500 1.400000
vt 0.312500 0.800000
vt 0.375000 1.100000
vt 0.125000 1.100000
vt 0.187500 0.800000
vt 0.250000 0.800000
vt 0.375000 0.800000
vt 0.125000 0.800000
vt 0.250000 -0.700000
vt 0.375000 -0.700000
vn 0.6786 0.6786 -0.2811
vn -0.6786 0.6786 0.2811
vn -0.6786 -0.6786 0.2811
vn 0.6786 -0.6786 -0.2811
vn 0.2811 0.6786 -0.6786
vn -0.2811 0.6786 0.6786
vn -0.2811 -0.6786 0.6786
vn 0.2811 -0.6786 -0.6786
vn -0.2811 0.6786 -0.6786
vn 0.2811 0.6786 0.6786
vn 0.2811 -0.6786 0.6786
vn -0.2811 -0.6786 -0.6786
vn -0.6786 0.6786 -0.2811
vn 0.6786 0.6786 0.2811
vn 0.6786 -0.6786 0.2811
vn -0.6786 -0.6786 -0.2811
usemtl None
s off
f 5/1/1 2/2/1 1/3/1
f 6/4/2 3/5/2 2/2/2
f 7/6/3 4/7/3 3/8/3
f 8/9/4 1/3/4 4/7/4
f 5/1/5 10/10/5 6/4/5
f 6/4/6 11/11/6 7/12/6
f 11/13/7 8/9/7 7/6/7
f 12/14/8 5/1/8 8/9/8
f 13/15/9 10/10/9 9/16/9
f 14/17/10 11/11/10 10/10/10
f 15/18/11 12/14/11 11/13/11
f 16/19/12 9/16/12 12/14/12
f 13/15/13 18/20/13 14/17/13
f 18/20/14 15/21/14 14/17/14
f 19/22/15 16/19/15 15/18/15
f 20/23/16 13/15/16 16/19/16
f 21/24/2 18/25/2 17/26/2
f 22/27/1 19/28/1 18/25/1
f 23/29/4 20/30/4 19/31/4
f 20/30/3 21/24/3 17/26/3
f 25/32/6 22/27/6 21/24/6
f 26/33/5 23/34/5 22/27/5
f 23/29/8 28/35/8 24/36/8
f 28/35/7 21/24/7 24/36/7
f 25/32/10 30/37/10 26/33/10
f 30/37/9 27/38/9 26/33/9
f 27/39/12 32/40/12 28/35/12
f 32/40/11 25/32/11 28/35/11
f 1/3/14 30/37/14 29/41/14
f 2/2/13 31/42/13 30/37/13
f 3/8/16 32/40/16 31/43/16
f 32/40/15 1/3/15 29/41/15
f 5/1/1 6/4/1 2/2/1
f 6/4/2 7/12/2 3/5/2
f 7/6/3 8/9/3 4/7/3
f 8/9/4 5/1/4 1/3/4
f 5/1/5 9/16/5 10/10/5
f 6/4/6 10/10/6 11/11/6
f 11/13/7 12/14/7 8/9/7
f 12/14/8 9/16/8 5/1/8
f 13/15/9 14/17/9 10/10/9
f 14/17/10 15/21/10 11/11/10
f 15/18/11 16/19/11 12/14/11
f 16/19/12 13/15/12 9/16/12
f 13/15/13 17/44/13 18/20/13
f 18/20/14 19/45/14 15/21/14
f 19/22/15 20/23/15 16/19/15
f 20/23/16 17/44/16 13/15/16
f 21/24/2 22/27/2 18/25/2
f 22/27/1 23/34/1 19/28/1
f 23/29/4 24/36/4 20/30/4
f 20/30/3 24/36/3 21/24/3
f 25/32/6 26/33/6 22/27/6
f 26/33/5 27/38/5 23/34/5
f 23/29/8 27/39/8 28/35/8
f 28/35/7 25/32/7 21/24/7
f 25/32/10 29/41/10 30/37/10
f 30/37/9 31/42/9 27/38/9
f 27/39/12 31/43/12 32/40/12
f 32/40/11 29/41/11 25/32/11
f 1/3/14 2/2/14 30/37/14
f 2/2/13 3/5/13 31/42/13
f 3/8/16 4/7/16 32/40/16
f 32/40/15 4/7/15 1/3/15
